<svg version="1.1" xmlns="http://www.w3.org/2000/svg" xmlns:xlink="http://www.w3.org/1999/xlink">
  <defs>
    <symbol id="trash" viewBox="0 0 24 24">
      <title>trash</title>
      <path d="M21 5h-4v-1c0-1.656-1.344-3-3-3h-4c-1.656 0-3 1.344-3 3v1h-4c-0.55 0-1 0.45-1 1s0.45 1 1 1h1v13c0 1.656 1.344 3 3 3h10c1.656 0 3-1.344 3-3v-13h1c0.55 0 1-0.45 1-1s-0.45-1-1-1zM9 4c0-0.55 0.45-1 1-1h4c0.55 0 1 0.45 1 1v1h-6v-1zM18 20c0 0.55-0.45 1-1 1h-10c-0.55 0-1-0.45-1-1v-13h12v13z"></path>
      <path d="M10 10c-0.55 0-1 0.45-1 1v6c0 0.55 0.45 1 1 1s1-0.45 1-1v-6c0-0.55-0.45-1-1-1z"></path>
      <path d="M14 10c-0.55 0-1 0.45-1 1v6c0 0.55 0.45 1 1 1s1-0.45 1-1v-6c0-0.55-0.45-1-1-1z"></path>
    </symbol>
    <symbol id="pencil" viewBox="0 0 24 24">
    <title>pencil</title>
    <path d="M20 13.662c-0.55 0-1 0.45-1 1v5.337c0 0.55-0.45 1-1 1h-14c-0.55 0-1-0.45-1-1v-14c0-0.55 0.45-1 1-1h5.337c0.55 0 1-0.45 1-1s-0.45-1-1-1h-5.337c-1.656 0-3 1.344-3 3v14c0 1.656 1.344 3 3 3h14c1.656 0 3-1.344 3-3v-5.337c0-0.556-0.45-1-1-1z"></path>
    <path d="M22.706 5.294l-4-4c-0.387-0.387-1.025-0.387-1.413 0l-10 10c-0.188 0.188-0.294 0.444-0.294 0.706v4c0 0.55 0.45 1 1 1h4c0.263 0 0.519-0.106 0.706-0.294l10-10c0.394-0.387 0.394-1.025 0-1.413zM11.587 15h-2.587v-2.587l9-9 2.587 2.587-9 9z"></path>
    </symbol>
  </defs>
</svg>
